<?xml version="1.0" encoding="utf-8"?>
<!-- Generator: Adobe Illustrator 26.1.0, SVG Export Plug-In . SVG Version: 6.00 Build 0)  -->
<svg version="1.1" id="Layer_1" xmlns="http://www.w3.org/2000/svg" xmlns:xlink="http://www.w3.org/1999/xlink" x="0px" y="0px"
	 viewBox="0 0 181.42 325.56" style="enable-background:new 0 0 181.42 325.56;" xml:space="preserve">
<style type="text/css">
	.st0{fill:#010101;}
</style>
<path class="st0" d="M101.7,10.97c1.84-1.88-0.18-4.94-2.64-4.51c-5.98,1.03-11.88,4.93-17.34,7.52
	c-5.78,2.75-11.54,5.53-17.28,8.35c-11.65,5.7-24.29,10.77-35.07,18.02c-0.54,0.36-0.81,0.95-0.85,1.54
	c-0.56,0.83-0.69,1.94,0.01,3.15c19.63,34.07,41.85,66.33,56.18,103.23c6.76,17.41,11.65,35.97,11.17,54.77
	c-0.42,16.46-5.15,31.56-13.43,45.71c-0.13,0.23-0.19,0.46-0.21,0.7c-0.64-0.28-1.28-0.55-1.92-0.77c-0.05-0.02-0.1-0.02-0.15-0.04
	c-11.52-4.53-23.76-6.4-36.17-6.78c-2.31-0.07-4.6,2.71-3.12,4.91c15.61,23.1,31.63,45.94,47.49,68.87c1.19,1.72,3.65,2.65,5.36,0.9
	c10.1-10.28,20.05-20.71,29.81-31.32c8.26-8.98,18.96-18.19,23.13-29.96c0.67-1.88-0.92-4.5-3.07-4.37
	c-6.58,0.42-13.43,0.96-19.92,2.5c3.9-7.54,7.09-15.51,10.47-23.27c3.79-8.72,7.41-17.52,9.84-26.72
	c4.24-16.07,6.39-33.33,7.43-49.9c1.06-16.71-1.82-32.68-6.55-48.66C135.17,72.01,122.91,38.31,101.7,10.97z M96.18,14.68
	c6.46,8.97,12.17,18.3,17.24,27.97c-11.51-7.1-23.69-14.35-36.34-19.26c2.57-1.19,5.13-2.38,7.69-3.58
	C88.39,18.11,92.49,16.63,96.18,14.68z M68.23,27.47c16.24,7.1,32.16,14.98,48.52,21.82c0.01,0.01,0.03,0.01,0.04,0.01
	c3.29,6.74,6.31,13.64,9.08,20.68c-12.88-7.51-26.21-13.97-40.22-19.22c-8.32-3.12-16.8-5.81-25.38-8.14
	c-4.14-1.12-8.3-2.16-12.49-3.11c-1.17-0.27-2.34-0.58-3.51-0.86c7.48-3.25,14.82-7,22.12-10.33
	C66.99,28.03,67.61,27.75,68.23,27.47z M137.76,103.7c-27.08-16.2-56.61-30.23-86.8-39.46c-0.88-0.39-1.67-0.34-2.33-0.04
	c-4.5-7.38-9.13-14.66-13.94-21.77c0.27-0.09,0.53-0.19,0.8-0.28c0.2,0.38,0.48,0.73,0.86,1.01c3.11,2.31,7.44,2.44,11.18,3.29
	c4.19,0.95,8.35,1.98,12.49,3.1c7.69,2.09,15.29,4.48,22.82,7.1c15.44,5.38,30.64,11.79,45.25,19.15
	C131.53,84.87,134.92,94.21,137.76,103.7z M144.27,133.53c0.15,1.23,0.26,2.46,0.36,3.69c-10.62-9.8-22.61-17.74-35.19-24.9
	c-15.34-8.72-30.86-17.23-46.47-25.45c-0.43-0.23-0.86-0.35-1.28-0.4c-2.64-4.68-5.33-9.34-8.08-13.98
	c13.29,4.98,26.64,9.69,39.75,15.19c15.03,6.3,29.93,12.98,44.68,19.91c0.31,0.14,0.61,0.19,0.89,0.16
	C141.33,116.27,143.24,124.89,144.27,133.53z M143.84,163.86c-9.75-8.52-19.56-16.94-29.61-25.1
	c-12.21-9.91-24.39-20.49-37.45-29.25c-0.92-0.61-1.86-0.66-2.68-0.36c-2-3.83-4.04-7.63-6.11-11.41c-0.1-0.18-0.2-0.36-0.3-0.54
	c26.22,14.11,53.7,26.95,77.22,45.22C145.09,149.57,144.6,156.74,143.84,163.86z M140.65,188.62c-6.47-8.24-14.12-15.71-21.7-22.85
	c-8.03-7.57-16.92-13.9-25.28-21.02c-0.3-0.53-0.78-0.95-1.45-1.16c-0.13-0.04-0.27-0.08-0.4-0.13c-0.6-0.19-1.27-0.15-1.88,0.07
	c-3.05-7.81-6.47-15.47-10.14-23.02c9.57,7.71,19.67,14.91,29.38,22.37c11.31,8.7,22.73,17.26,34.12,25.85
	C142.56,175.37,141.74,182.02,140.65,188.62z M101.68,206.75c0.13,0.17,0.27,0.34,0.45,0.5c8.06,7.28,15.84,15.2,24.43,21.83
	c0.58,0.45,1.31,0.36,1.88-0.01c-1.75,4.35-3.5,8.7-5.14,13.1c-3.33-4.15-6.89-8.06-10.79-11.69c-3.1-2.89-6.61-6.97-10.83-8
	c-1.03-0.25-2.09,0.22-2.66,1C100.46,218.05,101.32,212.44,101.68,206.75z M98.64,224.98c0.04,0.27,0.12,0.55,0.28,0.83
	c2.12,3.66,6.16,5.68,9.4,8.31c4.2,3.41,8.25,7,12.24,10.66c0.51,0.47,1.08,0.61,1.6,0.54c-1.11,3.1-2.14,6.23-3.06,9.39
	c-0.53,0.22-0.97,0.52-1.29,0.88c-1.23-1.11-2.44-2.2-3.56-3.28c-5.71-5.46-11.68-10.62-17.81-15.6c-0.65-0.53-1.31-0.71-1.93-0.65
	C96.19,232.49,97.56,228.79,98.64,224.98z M123.04,260.41c4.98-0.74,9.88-1.66,14.86-2.26c-2.23,3.71-5.19,6.96-8.12,10.19
	C128,265.53,125.61,262.9,123.04,260.41z M99.33,301.01c-5.37-4.77-10.8-9.44-16.33-14.01c-4.16-3.44-8.53-7.96-13.41-10.63
	c-2.87-4.17-5.75-8.33-8.64-12.49c14.46,10.87,29.42,20.84,44.92,30.31C103.7,296.46,101.52,298.74,99.33,301.01z M80.52,292.26
	c5.4,3.85,10.87,7.59,16.4,11.25c-1.69,1.74-3.38,3.48-5.08,5.21C88.06,303.23,84.29,297.74,80.52,292.26z M108.64,291.27
	c-18.85-13.19-37.17-27.38-55.03-41.85c-0.14-0.13-0.28-0.27-0.43-0.37c8.09,0.71,16.08,2.16,24.02,3.95
	c0.07,0.1,0.14,0.21,0.23,0.31c5.02,5.56,12.97,9.35,19.05,13.74c6.91,4.99,13.66,10.18,20.15,15.7c-0.17,0.19-0.34,0.37-0.52,0.56
	C113.63,285.96,111.14,288.62,108.64,291.27z M119.06,280.09c-6.07-6.1-12.31-12-18.94-17.5c-4.56-3.78-9.68-8.63-15.16-11.76
	c0,0,0,0,0,0c2.71-3.14,5.04-6.48,7.04-9.96c0.21,0.48,0.53,0.93,1.02,1.31c6.17,4.82,12.3,9.7,18.35,14.66
	c5.29,4.34,10.44,10.28,16.35,13.75C124.86,273.78,121.97,276.94,119.06,280.09z M129.31,226.94c-0.04-0.09-0.09-0.18-0.15-0.27
	c-6.19-8.82-14.42-16.57-22.4-23.76c-1.66-1.5-3.82-0.85-4.91,0.49c0.17-5.25-0.05-10.55-0.59-15.81c1.57,2.33,4.02,4.07,6.16,5.94
	c2.74,2.4,5.55,4.71,8.4,6.98c5.95,4.74,12.12,9.14,18.45,13.37C132.72,218.27,131.03,222.61,129.31,226.94z M139.13,196.87
	c-0.93,4.51-2.17,8.91-3.59,13.25c-5.79-4.69-11.47-9.53-17-14.51c-2.77-2.49-5.52-5.01-8.23-7.56c-2.44-2.29-4.27-4.59-7.5-5.59
	c-0.88-0.27-1.61-0.02-2.1,0.48c-1.4-10.2-3.93-20.19-7.06-29.39c2.75,2.09,5.78,4,8.21,5.98c4.48,3.65,8.91,7.37,13.25,11.19
	c8.49,7.45,16.27,15.63,24.6,23.24C139.51,194.94,139.33,195.91,139.13,196.87z"/>
</svg>
