<?xml version="1.0" encoding="utf-8"?>
<!-- Generator: Adobe Illustrator 26.1.0, SVG Export Plug-In . SVG Version: 6.00 Build 0)  -->
<svg version="1.1" id="Layer_1" xmlns="http://www.w3.org/2000/svg" xmlns:xlink="http://www.w3.org/1999/xlink" x="0px" y="0px"
	 viewBox="0 0 200 200" style="enable-background:new 0 0 200 200;" xml:space="preserve">
<style type="text/css">
	.st0{fill:#264DE4;}
	.st1{fill:#2965F1;}
	.st2{fill:#EBEBEB;}
	.st3{fill:#FFFFFF;}
</style>
<g id="layer1" transform="translate(-193.633,-276.3622)">
	<g id="g3013" transform="translate(119,276.3622)">
		<polygon id="polygon2989" class="st0" points="241.94,42.34 229.67,179.72 174.55,195 119.58,179.74 107.33,42.34 		"/>
		<polygon id="polygon2991" class="st1" points="219.18,170.97 229.66,53.57 174.63,53.57 174.63,183.32 		"/>
		<polygon id="polygon2993" class="st2" points="135.41,104.53 136.92,121.39 174.63,121.39 174.63,104.53 		"/>
		<polygon id="polygon2995" class="st2" points="174.63,70.43 174.57,70.43 132.38,70.43 133.91,87.28 174.63,87.28 		"/>
		<polygon id="polygon2997" class="st2" points="174.63,165.83 174.63,148.3 174.56,148.32 155.79,143.25 154.59,129.81 
			145.47,129.81 137.68,129.81 140.04,156.27 174.56,165.85 		"/>
		<path id="path2999" d="M139.01,5h20.41v8.54h-11.88v8.54h11.88v8.54h-20.41V5z"/>
		<path id="path3001" d="M163.5,5h20.41v7.42h-11.88v1.48h11.88v17.07H163.5v-7.79h11.88V21.7H163.5V5z"/>
		<path id="path3003" d="M187.99,5h20.41v7.42h-11.88v1.48h11.88v17.07h-20.41v-7.79h11.88V21.7h-11.88V5z"/>
		<polygon id="polygon3005" class="st3" points="195.33,121.39 193.37,143.24 174.57,148.31 174.57,165.85 209.12,156.27 
			209.37,153.42 213.33,109.06 213.75,104.53 216.79,70.43 174.57,70.43 174.57,87.28 198.32,87.28 196.79,104.53 174.57,104.53 
			174.57,121.39 		"/>
	</g>
</g>
</svg>
