<?xml version="1.0" encoding="utf-8"?>
<!-- Generator: Adobe Illustrator 26.1.0, SVG Export Plug-In . SVG Version: 6.00 Build 0)  -->
<svg version="1.1" id="Layer_1" xmlns="http://www.w3.org/2000/svg" xmlns:xlink="http://www.w3.org/1999/xlink" x="0px" y="0px"
	 viewBox="0 0 200 200" style="enable-background:new 0 0 200 200;" xml:space="preserve">
<style type="text/css">
	.st0{fill:#FFFFFF;}
</style>
<g>
	<path class="st0" d="M155.42,5H44.58C22.73,5,5,22.73,5,44.58v110.83C5,177.27,22.73,195,44.58,195h110.83
		c21.87,0,39.58-17.73,39.58-39.58V44.58C195,22.73,177.28,5,155.42,5z"/>
</g>
<g>
	<path d="M155.42,5H44.58C22.73,5,5,22.73,5,44.58v110.83C5,177.27,22.73,195,44.58,195h110.83c21.87,0,39.58-17.73,39.58-39.58
		V44.58C195,22.73,177.28,5,155.42,5z M120.06,160.09c-3.21,0.62-4.23-1.35-4.23-3.04v-17.38c0-5.91-2.07-9.76-4.35-11.72
		c14.11-1.57,28.93-6.93,28.93-31.25c0-6.92-2.47-12.57-6.52-17c0.65-1.6,2.82-8.04-0.63-16.76c0,0-5.31-1.7-17.4,6.49
		c-5.07-1.42-10.48-2.11-15.86-2.15C94.62,67.3,89.2,68,84.14,69.41c-12.1-8.19-17.42-6.49-17.42-6.49
		c-3.44,8.72-1.27,15.16-0.61,16.77c-4.05,4.43-6.52,10.08-6.52,17c0,24.26,14.78,29.7,28.86,31.3c-1.81,1.58-3.45,4.37-4.02,8.47
		c-3.62,1.62-12.78,4.41-18.43-5.27c0,0-3.35-6.08-9.71-6.53c0,0-6.17-0.08-0.44,3.86c0,0,4.16,1.95,7.04,9.26
		c0,0,3.67,11.3,21.28,7.47v11.79c0,1.67-1.02,3.63-4.18,3.05c-25.17-8.37-43.32-32.11-43.32-60.09c0-34.98,28.36-63.33,63.33-63.33
		s63.33,28.35,63.33,63.33C163.33,127.97,145.21,151.7,120.06,160.09z"/>
</g>
</svg>
