<?xml version="1.0" encoding="utf-8"?>
<!-- Generator: Adobe Illustrator 26.1.0, SVG Export Plug-In . SVG Version: 6.00 Build 0)  -->
<svg version="1.1" id="Layer_1" xmlns="http://www.w3.org/2000/svg" xmlns:xlink="http://www.w3.org/1999/xlink" x="0px" y="0px"
	 viewBox="0 0 200 200" style="enable-background:new 0 0 200 200;" xml:space="preserve">
<style type="text/css">
	.st0{fill:#E44D26;}
	.st1{fill:#F16529;}
	.st2{fill:#EBEBEB;}
	.st3{fill:#FFFFFF;}
</style>
<g>
	<path d="M45.23,5h8.54v8.46h7.87V5h8.54v25.61h-8.54v-8.54h-7.79v8.54h-8.61 M81.45,13.54h-7.53V5h23.64v8.54h-7.57v17.07h-8.54
		 M101.3,5h8.94l5.49,9.02L121.23,5h8.94v25.61h-8.54V17.91l-5.97,9.2l-5.97-9.2v12.69h-8.39 M134.4,5h8.54v17.14h12.1v8.46H134.4"
		/>
	<path class="st0" d="M44.93,179.79L32.68,42.33h134.63l-12.25,137.38L99.89,195"/>
	<path class="st1" d="M100,183.31V53.61h55.03l-10.5,117.27"/>
	<path class="st2" d="M57.7,70.42H100v16.85H76.18l1.56,17.26H100v16.81H62.3 M63.04,129.8h16.92l1.19,13.47l18.85,5.05v17.59
		l-34.59-9.65"/>
	<path class="st3" d="M142.16,70.42H99.93v16.85h40.67 M139.08,104.53H99.93v16.85h20.78l-1.97,21.89l-18.81,5.05v17.52l34.51-9.57"
		/>
</g>
</svg>
