<?xml version="1.0" encoding="utf-8"?>
<!-- Generator: Adobe Illustrator 26.1.0, SVG Export Plug-In . SVG Version: 6.00 Build 0)  -->
<svg version="1.1" id="Layer_1" xmlns="http://www.w3.org/2000/svg" xmlns:xlink="http://www.w3.org/1999/xlink" x="0px" y="0px"
	 viewBox="0 0 200 200" style="enable-background:new 0 0 200 200;" xml:space="preserve">
<style type="text/css">
	.st0{fill:url(#SVGID_1_);}
	.st1{fill:#EE468B;}
</style>
<g>
	
		<radialGradient id="SVGID_1_" cx="-1001.435" cy="-888.6923" r="0.2425" gradientTransform="matrix(545.6736 0 0 528.3113 546526.9375 469559.5)" gradientUnits="userSpaceOnUse">
		<stop  offset="0" style="stop-color:#4B2C37;stop-opacity:0.98"/>
		<stop  offset="1" style="stop-color:#250F18"/>
	</radialGradient>
	<path class="st0" d="M12.91,15.29h174.13v169.42H12.91V15.29z"/>
	<path class="st1" d="M12.91,15.29h174.13v169.42H12.91V15.29z M5,192.62h190V7.38H5V192.62z M125.19,84.34
		c-1.18-0.57-2.78-0.8-4.68-0.8c-10.2,0-17.35,7.84-17.35,20.89c0,14.88,7.27,20.89,16.4,20.89c1.98,0,4.03-0.23,5.63-0.95V84.34
		L125.19,84.34z M121,71.45c1.67,0,2.63,0,4.19,0.15V50.56c0-0.57,0.38-0.8,0.8-0.8h12.82c0.65,0,0.8,0.23,0.8,0.65v74
		c0,2.21,0,4.98,0.38,7.99c0,0.57-0.15,0.65-0.72,0.95c-6.81,3.23-14,4.68-20.73,4.68c-17.5,0-30.02-10.84-30.02-32.95
		C88.43,86.17,100.95,71.45,121,71.45z M74.51,135.78c0,0.8-0.15,1.03-1.03,1.03H61.31c-0.8,0-1.03-0.38-1.03-1.03V50.79
		c0-0.8,0.38-1.03,1.03-1.03H73.6c0.65,0,0.95,0.23,0.95,0.95v85.07H74.51z"/>
</g>
</svg>
