<?xml version="1.0" encoding="utf-8"?>
<!-- Generator: Adobe Illustrator 26.1.0, SVG Export Plug-In . SVG Version: 6.00 Build 0)  -->
<svg version="1.1" id="Layer_1" xmlns="http://www.w3.org/2000/svg" xmlns:xlink="http://www.w3.org/1999/xlink" x="0px" y="0px"
	 viewBox="0 0 200 200" style="enable-background:new 0 0 200 200;" xml:space="preserve">
<style type="text/css">
	.st0{fill:#FFFFFF;}
	.st1{fill:#EAEBEC;}
	.st2{fill:#F0BE25;}
	.st3{fill:#E4A126;}
	.st4{fill:#0E0E0F;}
</style>
<g>
	<path id="path118" class="st0" d="M32.99,42.13l0.02,1.7c0.01,0.93,2.72,31.85,6.01,68.71l5.99,67.01l26.93,7.54
		c14.81,4.15,27.23,7.56,27.61,7.59c0.37,0.03,12.96-3.35,27.97-7.51c24.07-6.66,27.32-7.67,27.49-8.49
		c0.24-1.15,12.03-134.1,12.01-135.53l-0.01-1.02H100H32.99z"/>
	<path id="path88" class="st1" d="M72.16,187.54l-27.17-7.59l-0.36-2.01c-0.32-1.79-12.1-133.37-12.1-135.11
		c0-0.63,6.88-0.7,67.46-0.7c63.95,0,67.46,0.04,67.46,0.79c-0.02,3.24-12.22,136.57-12.52,136.83
		c-0.38,0.34-52.96,14.98-54.72,15.24C99.73,195.07,87.1,191.72,72.16,187.54L72.16,187.54z M117.13,160.71
		c9.13-2.52,16.73-4.71,16.89-4.87c0.16-0.16,1.23-10.99,2.37-24.06s2.2-24.64,2.34-25.7l0.26-1.92h-19.72H99.55v8.38v8.38h10.65
		h10.65l-0.21,1.02c-0.12,0.56-0.57,5.38-1.01,10.7c-0.46,5.64-1.01,9.9-1.32,10.2c-0.29,0.29-4.63,1.62-9.64,2.95l-9.12,2.43v8.53
		c0,5.82,0.16,8.53,0.49,8.53C100.31,165.29,108,163.23,117.13,160.71L117.13,160.71z M138.74,93.63c-0.3-2.22-2.97-31.98-2.97-33.1
		c0-0.68-1.57-0.75-17.89-0.75H100v8.76v8.76l8.04,0.31c4.42,0.17,9.07,0.43,10.34,0.58l2.3,0.27l0.56,6.85
		c0.31,3.77,0.67,7.62,0.81,8.55l0.25,1.7h8.35H139L138.74,93.63z"/>
	<path id="path80" class="st2" d="M71.94,187.09l-26.93-7.54l-5.99-67.01c-3.3-36.86-6-67.78-6.01-68.71l-0.02-1.7H100h67.01
		l0.01,1.02c0.01,1.42-11.77,134.38-12.01,135.53c-0.17,0.82-3.42,1.83-27.49,8.49c-15.01,4.16-27.6,7.54-27.97,7.51
		C99.18,194.65,86.75,191.23,71.94,187.09L71.94,187.09z M117.15,161.03c9.31-2.59,17.06-4.92,17.22-5.18s1.27-11.64,2.47-25.29
		c1.2-13.65,2.28-25.17,2.4-25.61c0.21-0.75-1.38-0.79-28.7-0.79H81.62l1.23-13.02c0.68-7.16,1.25-13.04,1.27-13.06
		c0.02-0.02,4.26-0.16,9.43-0.3c8.47-0.23,25.95,0.44,26.53,1.03c0.22,0.22,1.66,14.31,1.66,16.24c0,0.95,0.13,0.96,8.77,0.96h8.77
		l-0.21-1.92c-0.11-1.06-0.86-9.26-1.65-18.22l-1.44-16.3l-33.84-0.12c-26.92-0.09-33.84,0-33.84,0.45c0,0.31-0.2,2.3-0.44,4.42
		c-0.58,5.12-4.99,54.61-4.99,55.98v1.07h28.79h28.79l-0.26,1.7c-0.14,0.93-0.59,5.67-0.99,10.53c-0.41,4.86-0.87,8.95-1.03,9.11
		c-0.42,0.4-17.36,4.93-18.42,4.92c-0.49,0-4.86-1.1-9.72-2.43l-8.83-2.42l-0.32-3.8c-0.18-2.09-0.45-5.07-0.6-6.63l-0.28-2.83
		h-8.57h-8.57l0.02,1.7c0.04,3.18,2.09,24.56,2.39,24.86c0.35,0.35,33.25,9.6,34.26,9.63C99.92,165.72,107.85,163.62,117.15,161.03
		L117.15,161.03z"/>
	<path id="path78" class="st3" d="M71.94,187.09l-26.93-7.54l-5.99-67.01c-3.3-36.86-6-67.78-6.01-68.71l-0.02-1.7H100h67.01
		l0.01,1.02c0.01,1.42-11.77,134.38-12.01,135.53c-0.17,0.82-3.42,1.83-27.49,8.49c-15.01,4.16-27.6,7.54-27.97,7.51
		C99.18,194.65,86.75,191.23,71.94,187.09L71.94,187.09z M122.16,177c11.85-3.27,21.76-6.17,22.03-6.45
		c0.42-0.44,10.65-112.56,10.61-116.31L154.79,53H127.4H100v3.17v3.17H84.16c-12.37,0-15.85,0.12-15.85,0.57
		c0,0.31-0.2,2.3-0.44,4.41c-0.58,5.12-4.99,54.61-4.99,55.98v1.07h18.56H100v13.13c0,10.21-0.13,13.13-0.57,13.12
		c-0.31,0-4.54-1.1-9.4-2.43l-8.83-2.42l-0.32-3.8c-0.18-2.09-0.45-5.07-0.6-6.63l-0.28-2.83h-8.57h-8.57l0.02,1.7
		c0.05,4.86,2.16,24.68,2.65,24.99c0.3,0.19,8.18,2.45,17.5,5.03l16.96,4.69v8.51c0,4.68,0.14,8.51,0.31,8.51
		S110.31,180.27,122.16,177L122.16,177z M82.8,91.26c0.65-7.09,1.27-12.98,1.38-13.07c0.11-0.1,3.71-0.28,8.01-0.39l7.81-0.22v13.29
		v13.29h-9.19h-9.19L82.8,91.26z"/>
	<path id="path76" class="st4" d="M75.55,26.05v-4.3h6.11h6.11v-8.38V5h4.3h4.3v12.68v12.68H85.97H75.55V26.05z M100.46,26.96v-3.4
		h5.66c3.11,0,5.66-0.12,5.66-0.26s-2.55-3.02-5.66-6.39l-5.66-6.13V7.89V5h11.77H124v3.38v3.38l-5.53,0.13l-5.53,0.13l5.75,6.2
		l5.75,6.2v2.97v2.97h-12h-12V26.96z"/>
</g>
</svg>
