<?xml version="1.0" encoding="utf-8"?>
<!-- Generator: Adobe Illustrator 26.1.0, SVG Export Plug-In . SVG Version: 6.00 Build 0)  -->
<svg version="1.1" id="Layer_1" xmlns="http://www.w3.org/2000/svg" xmlns:xlink="http://www.w3.org/1999/xlink" x="0px" y="0px"
	 viewBox="0 0 200 128" style="enable-background:new 0 0 200 128;" xml:space="preserve">
<path d="M182.62,42.72c-4.32,0.06-8.6,1.72-12.85,2.47c-4.8,0.84-9.66,1.35-14.52,1.59c-9.36,0.47-18.75,0-28.06-0.98
	c-9.81-1.03-19.54-2.6-29.27-4.14c-7.21-1.14-14.05-2.1-20.32-5.73c4.06-6.49,6.89-13.4,8.56-20.88c0.35-1.59-0.71-2.89-2.29-3.01
	c-13.6-1.01-27.25-1.33-40.88-0.85c-7.14,0.26-14.28,0.69-21.39,1.39c-3.14,0.31-6.46,0.73-6.38,4.62c0.05,2.46,1.65,5.48,2.4,7.79
	c1.12,3.41,2.23,6.82,3.35,10.23c2.13,6.51,4.26,13.02,6.4,19.54c4.35,13.28,8.32,26.93,13.65,39.85c0.22,0.53,0.65,0.8,1.1,0.86
	c0.27,0.69,1.19,1.07,1.89,0.44c3.1-2.78,5.59-6.32,7.88-9.77c1.47-2.22,3.13-4.66,4.36-7.21c4.14,6.91,11.44,12.55,17.83,16.88
	c8.58,5.82,18.2,10.06,28.05,13.22c22.5,7.22,48.79,10.15,72.19,6.22c2.84-0.48,2.18-5.19-0.68-5.03
	c-11.49,0.64-22.73,1.45-34.25,0.57c-11.37-0.87-22.69-2.84-33.64-6.02c-9.32-2.7-18.33-6.4-26.66-11.4
	c-4.25-2.55-8.23-5.46-11.97-8.71c-3.37-2.93-6.2-6.46-9.49-9.44c0.03-0.1,0.06-0.2,0.09-0.31c0.36-1.6-1.84-3.33-3.05-1.78
	c-2.4,3.09-3.9,6.96-5.84,10.37c-1.78,3.13-3.83,6.12-5.64,9.24C37.68,69.81,29.3,47.25,22.2,24.76c-0.39-1.24-0.79-2.49-1.18-3.73
	c-0.2-0.62-0.39-1.24-0.59-1.87c-1.14-1.46-1.04-2.11,0.29-1.96c1.57-1.11,6.81-0.59,8.65-0.71c5.83-0.4,11.67-0.67,17.51-0.79
	c11.34-0.24,22.68,0.08,34,0.89c-1.64,6.02-4.1,11.66-7.41,17.02c-0.7,1.14-0.32,2.23,0.47,2.88c4.3,5.74,11.48,7.51,18.19,8.87
	c10.32,2.1,20.74,3.95,31.19,5.24c10.58,1.31,21.27,2.05,31.93,1.51c4.75-0.24,9.49-0.74,14.18-1.49c4.67-0.75,10.2-1.35,14.31-3.8
	C185.58,45.72,184.84,42.69,182.62,42.72z"/>
</svg>
