<?xml version="1.0" encoding="utf-8"?>
<!-- Generator: Adobe Illustrator 26.1.0, SVG Export Plug-In . SVG Version: 6.00 Build 0)  -->
<svg version="1.1" id="Layer_1" xmlns="http://www.w3.org/2000/svg" xmlns:xlink="http://www.w3.org/1999/xlink" x="0px" y="0px"
	 viewBox="0 0 200 200" style="enable-background:new 0 0 200 200;" xml:space="preserve">
<style type="text/css">
	.st0{fill:#0078D4;}
	.st1{opacity:0.05;enable-background:new    ;}
	.st2{opacity:0.07;enable-background:new    ;}
	.st3{fill:#FFFFFF;}
</style>
<g>
	<path class="st0" d="M195,168.61c0,14.58-11.81,26.39-26.39,26.39H31.39C16.82,195,5,183.19,5,168.61V31.39
		C5,16.81,16.82,5,31.39,5h137.22C183.19,5,195,16.81,195,31.39V168.61z"/>
	<path class="st1" d="M131.67,168.61v-53.3c0-8.91-4.32-14.24-11.57-14.24c-4.3,0-7.46,2.42-9.39,7.2
		c-0.09,0.34-0.22,1.72-0.16,5.88l0.01,54.46H73.61V68.33h36.94v5.6c5.39-3.72,12.01-5.6,19.73-5.6c24,0,38.32,16.32,38.32,43.67
		l0.01,56.61H131.67z M31.39,168.61V68.33h18.25c-10.57,0-18.25-7.77-18.25-18.48c0-10.7,7.8-18.47,18.55-18.47
		c10.62,0,18.18,7.55,18.4,18.36c0,10.79-7.81,18.58-18.55,18.58h18.55v100.28H31.39z"/>
	<path class="st2" d="M134.31,165.97v-50.66c0-10.41-5.44-16.88-14.21-16.88c-6.83,0-10.21,4.81-11.84,8.85
		c-0.43,1.05-0.37,5.22-0.35,7l0.01,51.69H76.25v-95h31.67v8.65c4.2-4.34,10.95-8.65,22.37-8.65c22.34,0,35.68,15.34,35.68,41.03
		l0.01,53.97H134.31z M34.03,165.97v-95h31.67v95H34.03z M49.63,65.69c-9.04,0-15.61-6.66-15.61-15.84
		c0-9.17,6.69-15.83,15.91-15.83c9.1,0,15.57,6.49,15.76,15.78c0,9.23-6.69,15.89-15.91,15.89H49.63z"/>
	<path class="st3" d="M36.67,73.61h26.39v89.72H36.67V73.61z M49.78,63.06h-0.15c-7.87,0-12.97-5.87-12.97-13.2
		c0-7.49,5.25-13.19,13.27-13.19c8.03,0,12.97,5.7,13.12,13.19C63.06,57.18,57.96,63.06,49.78,63.06z M163.33,163.33h-26.39v-48.02
		c0-11.6-6.47-19.52-16.85-19.52c-7.92,0-12.21,5.34-14.29,10.5c-0.76,1.85-0.53,6.96-0.53,9.54v47.5H78.89V73.61h26.39v13.81
		c3.81-5.89,9.76-13.81,25.01-13.81c18.88,0,33.04,11.88,33.04,38.39L163.33,163.33L163.33,163.33z"/>
</g>
</svg>
