<?xml version="1.0" encoding="utf-8"?>
<!-- Generator: Adobe Illustrator 26.1.0, SVG Export Plug-In . SVG Version: 6.00 Build 0)  -->
<svg version="1.1" id="Layer_1" xmlns="http://www.w3.org/2000/svg" xmlns:xlink="http://www.w3.org/1999/xlink" x="0px" y="0px"
	 viewBox="0 0 200 200" style="enable-background:new 0 0 200 200;" xml:space="preserve">
<style type="text/css">
	.st0{fill:url(#SVGID_1_);}
	.st1{fill:#34C5EE;}
</style>
<g>
	
		<radialGradient id="SVGID_1_" cx="-1001.435" cy="-888.6923" r="0.2426" gradientTransform="matrix(545.6736 0 0 528.3113 546526.9375 469559.5)" gradientUnits="userSpaceOnUse">
		<stop  offset="0" style="stop-color:#35374E;stop-opacity:0.98"/>
		<stop  offset="1" style="stop-color:#131124"/>
	</radialGradient>
	<path class="st0" d="M12.92,15.28h174.2v169.44H12.92V15.28z"/>
	<path class="st1" d="M12.92,15.28h174.2v169.44H12.92V15.28z M5,192.64h190V7.36H5V192.64z M133.13,83.4
		c-6.24,0-8.38,3.16-8.38,5.79c0,2.86,1.41,4.84,9.82,9.18c12.41,6.02,16.3,11.8,16.3,20.26c0,12.68-9.67,19.49-22.73,19.49
		c-6.89,0-12.83-1.41-16.22-3.39c-0.57-0.23-0.65-0.65-0.65-1.26v-11.69c0-0.8,0.38-1.03,0.95-0.65c4.99,3.24,10.7,4.68,15.92,4.68
		c6.24,0,8.87-2.63,8.87-6.17c0-2.86-1.83-5.37-9.82-9.52c-11.23-5.37-15.92-10.81-15.92-19.95c0-10.2,8-18.7,21.86-18.7
		c6.82,0,11.58,1.03,14.16,2.21c0.65,0.38,0.8,1.03,0.8,1.6v10.85c0,0.65-0.38,1.03-1.18,0.8C143.41,84.73,138.27,83.4,133.13,83.4
		L133.13,83.4z M65.05,92.8c1.83,0.15,3.24,0.15,6.4,0.15c9.25,0,17.97-3.24,17.97-15.84C89.41,67.06,83.17,62,72.62,62
		c-3.16,0-6.17,0.15-7.62,0.23L65.05,92.8L65.05,92.8z M50.92,50.77c0-0.57,1.1-0.95,1.75-0.95c5.06-0.23,12.6-0.38,20.41-0.38
		c21.93,0,30.5,12.03,30.5,27.38c0,20.1-14.58,28.75-32.48,28.75c-3.01,0-4.04-0.15-6.17-0.15v30.38c0,0.65-0.23,0.95-0.95,0.95
		H51.87c-0.65,0-0.95-0.23-0.95-0.95L50.92,50.77L50.92,50.77z"/>
</g>
</svg>
