<?xml version="1.0" encoding="utf-8"?>
<!-- Generator: Adobe Illustrator 26.1.0, SVG Export Plug-In . SVG Version: 6.00 Build 0)  -->
<svg version="1.1" id="Layer_1" xmlns="http://www.w3.org/2000/svg" xmlns:xlink="http://www.w3.org/1999/xlink" x="0px" y="0px"
	 viewBox="0 0 200 200" style="enable-background:new 0 0 200 200;" xml:space="preserve">
<style type="text/css">
	.st0{fill-rule:evenodd;clip-rule:evenodd;fill:#CC0000;}
</style>
<g transform="translate(8 8)">
	<path class="st0" d="M162.38,116.72v8.69h15.69c3.22,0,8.73-2.35,8.93-8.93v-3.36c0-5.62-4.61-8.93-8.93-8.93h-7.82v-4.03h15.5
		v-8.73h-14.88c-3.84,0-8.97,3.17-8.97,9.07v3.02c0,5.9,5.09,8.93,8.97,8.93c10.8,0.05-2.59,0,7.39,0v4.22 M78.3,114.6
		c0,0,8.4-0.72,8.4-11.57S76.52,91.18,76.52,91.18H58.19v34.22h9.21v-8.25l7.97,8.25H89L78.3,114.6z M74.75,107.6H67.4v-7.82h7.39
		c0,0,2.06,0.77,2.06,3.89C76.86,106.78,74.75,107.6,74.75,107.6z M109.45,91.42h-9.36c-6.67,0-8.93,6.05-8.93,8.93v25.05h9.36v-6
		h8.78v6h9.07v-25.05C118.37,93.06,111.75,91.42,109.45,91.42z M109.3,109.71h-8.83v-8.3c0,0,0-1.87,2.93-1.87h3.22
		c2.59,0,2.64,1.87,2.64,1.87v8.3H109.3z"/>
	<rect x="122.64" y="91.42" class="st0" width="9.74" height="33.98"/>
	<polygon class="st0" points="146.06,116.62 146.06,91.42 136.37,91.42 136.37,116.62 136.37,125.4 146.06,125.4 159.16,125.4 
		159.16,116.62 	"/>
	<path class="st0" d="M0.36,125.4h37.91c0,0-7.25-33.07,16.75-46.46c5.23-2.54,21.88-12.05,49.14,8.11c0.86-0.72,1.68-1.3,1.68-1.3
		S80.89,60.85,53.1,63.64C39.14,64.88,21.96,77.6,11.88,94.4S0.36,125.4,0.36,125.4z"/>
	<path class="st0" d="M0.36,125.4h37.91c0,0-7.25-33.07,16.75-46.46c5.23-2.54,21.88-12.05,49.14,8.11c0.86-0.72,1.68-1.3,1.68-1.3
		S80.89,60.85,53.1,63.64C39.14,64.88,21.96,77.6,11.88,94.4S0.36,125.4,0.36,125.4z"/>
	<path class="st0" d="M0.36,125.4h37.91c0,0-7.25-33.07,16.75-46.46c5.23-2.54,21.88-12.05,49.14,8.11c0.86-0.72,1.68-1.3,1.68-1.3
		S80.89,60.85,53.1,63.64C39.09,64.88,21.91,77.6,11.83,94.4S0.36,125.4,0.36,125.4z M79.35,66.32l0.19-3.22
		c-0.43-0.24-1.63-0.82-4.66-1.68L74.7,64.6C76.28,65.12,77.82,65.7,79.35,66.32z"/>
	<path class="st0" d="M74.79,76.5l-0.19,3.02c1.58,0.05,3.17,0.24,4.75,0.58l0.19-2.98C77.91,76.79,76.33,76.59,74.79,76.5z
		 M57.04,61.53h0.48l-0.96-2.93c-1.49,0-3.02,0.1-4.61,0.29l0.91,2.83C54.25,61.57,55.65,61.53,57.04,61.53z M59.34,79.19l1.1,3.31
		c1.39-0.67,2.78-1.25,4.18-1.68l-1.06-3.17C61.93,78.13,60.54,78.66,59.34,79.19z M37.55,66.56l-2.16-3.31
		c-1.2,0.62-2.45,1.3-3.74,2.06l2.21,3.36C35.11,67.91,36.31,67.19,37.55,66.56z M47.39,88.16l2.3,3.46c0.82-1.2,1.78-2.3,2.83-3.41
		l-2.16-3.26C49.26,85.95,48.26,87.06,47.39,88.16z M40.43,103.61l3.89,3.07c0.19-1.87,0.53-3.74,1.01-5.62l-3.46-2.74
		C41.25,100.11,40.82,101.89,40.43,103.61z M19.41,80.82L16,77.84c-1.25,1.2-2.45,2.4-3.55,3.6l3.7,3.17
		C17.16,83.31,18.26,82.02,19.41,80.82z M4.92,102.27l-5.52-2.02c-0.91,2.06-1.92,4.46-2.4,5.76l5.52,2.02
		C3.14,106.4,4.15,104.05,4.92,102.27z M39.71,115.8c0.1,2.54,0.34,4.61,0.58,6.05l5.76,2.06c-0.43-1.87-0.86-3.98-1.15-6.24
		L39.71,115.8z"/>
</g>
</svg>
