<?xml version="1.0" encoding="utf-8"?>
<!-- Generator: Adobe Illustrator 26.1.0, SVG Export Plug-In . SVG Version: 6.00 Build 0)  -->
<svg version="1.1" id="Layer_1" xmlns="http://www.w3.org/2000/svg" xmlns:xlink="http://www.w3.org/1999/xlink" x="0px" y="0px"
	 viewBox="0 0 200 200" style="enable-background:new 0 0 200 200;" xml:space="preserve">
<style type="text/css">
	.st0{clip-path:url(#SVGID_00000054956631606208942440000000350542556302651776_);fill:#FFFFFF;}
	.st1{clip-path:url(#SVGID_00000054956631606208942440000000350542556302651776_);}
	.st2{clip-path:url(#SVGID_00000054956631606208942440000000350542556302651776_);fill:#ED1C24;}
	.st3{fill:#FFFFFF;}
	.st4{clip-path:url(#SVGID_00000159441204925794593150000012169940248767404961_);fill:#FFFFFF;}
</style>
<g>
	<rect x="5" y="5" width="190" height="190"/>
	<g>
		<defs>
			<rect id="SVGID_1_" x="5" y="5" width="190" height="190"/>
		</defs>
		<clipPath id="SVGID_00000044148674214789957000000009654601025176237503_">
			<use xlink:href="#SVGID_1_"  style="overflow:visible;"/>
		</clipPath>
		<path style="clip-path:url(#SVGID_00000044148674214789957000000009654601025176237503_);fill:#FFFFFF;" d="M26.62,80.24
			c17.97-5.75,38.65,0.06,54.44,28.94c1.42,2.77,3.25,2.08,3.16-0.74c0.35-2.93-0.11-15.19-7.78-26.06
			c-0.26-0.56,0.01-0.87,0.43-1.28c1.8-1.34,15.1-4.16,29.96-14.8c1.15-0.78,6.11-3.14,5.29-10.19
			c-2.48-17.39-16.35-29.19-20.22-31.56c-3.86-2.38-3.43,1.78-3.37,2.41c-0.69,13.45-4.73,33.2-19.12,46.68
			c-5.13-1.45-6.95-5.09-6.95-5.09s19.39-25.31,14.37-45.52c-1.32-5.69-2.88-7.7-9.22-6.41c-6.34,1.28-21.41,6.04-21.41,6.04
			s-2.34,0.89-0.49,3.27c1.85,2.37,10.77,11.36,3.5,36.47c-6.6-2.25-21.14-5.02-22.59-1.06C25.16,65.3,20.14,80.04,26.62,80.24"/>
		<path style="clip-path:url(#SVGID_00000044148674214789957000000009654601025176237503_);fill:#FFFFFF;" d="M88.63,89.95
			c-0.2,1.04,0.89,7.14,0,12.19c-1.49,3.77-1.99,6.05,0.94,8.32c2.93,2.28,24.8,12.59,37.62,26.33c4.9,4.99,7.38-1.21,3.77-4.08
			c-0.99-1.09-5.65-5.25-5.55-6.69c0.1-1.44,2.78,1.33,3.77,2.37c-2.67-5.4,3.18-12.29,9.42-4.51c2.54,2.46,0.76,8.28-1.42,9.86
			c2.39-2.39-1.77-8.34-5.09-5.02c-1.71,1.65,3.01,5.38,4.06,6.31c1.06,0.92,4.83-2.21,6.15-4.4c0.97-1.35,2.37-2.49,4.4-11.23
			c0.64-2.26,1.48-3.08,3.5-5.11c2.02-2.02,31.52-26.74,34.79-37.15c1.92-5.42,0.99-7.33-3.07-3.47
			c-4.06,3.86-26.56,20.71-35.08,23.09c-8.52,2.38-10.01-1.93-8.77-2.98c0.75-0.75,19.71-21.24-1.35-10.21
			c-7.71,2.84-15.25-3.44-16.83-9.05c-3.35-10.7-3.24-12.82-10.84-6.28c-4.09,3.37-11.36,7-14.14,7.99
			c-8.32,1.98-11.63,11.3-4.89,12.22c6.74,0.93,10.39-0.13,8.56,1.8c-1.84,1.93-4.56,3.67-1.49,5.35c3.07,1.68,8.94,5.84,9.28,6.24
			c0.34,0.4,3.06,0.74,3.85-1.24c0.8-1.98,0.1-2.53-0.44-2.82c-0.54-0.3,0.05-1.19,1.34-1.04c1.29,0.15,4.36-1.04,5.11-1.59
			c0.74-0.54,9.46-1.98,11.59,1.04c-2.42,0.76-3.12-0.81-6.54,0.4c-1.87,0.73-6.42,1.3-8.57,6.15c-1.6,3.62-2.2,11.08-8.74,8.97
			c-6.54-2.12-13.26-4.11-12.22-10.7C92.74,94.46,92.3,90.2,88.63,89.95"/>
		<path style="clip-path:url(#SVGID_00000044148674214789957000000009654601025176237503_);" d="M100.39,95.11
			c3.14,1.75,4.2,2.91,4.59,3.34c0.4,0.43,2.58,0.63,2.34-1.42c-0.92-1.69-4.26-4-5.12-4.03C101.35,92.96,99.66,93.19,100.39,95.11"
			/>
		<path style="clip-path:url(#SVGID_00000044148674214789957000000009654601025176237503_);fill:#FFFFFF;" d="M26.74,151.58v7.91
			c0.8,0.11,1.57,0.17,2.33,0.17c1.99,0,3.44-0.32,4.35-0.97c0.91-0.64,1.36-1.79,1.36-3.44c0-1.36-0.49-2.34-1.46-2.94
			c-0.98-0.6-2.52-0.89-4.62-0.89C28.36,151.41,27.71,151.47,26.74,151.58 M36.76,172.93l-6.5-10.45c-0.74,0-1.92-0.06-3.52-0.17
			v10.62h-3.32v-24.34c0.12,0,0.98-0.04,2.58-0.12c1.6-0.08,2.77-0.13,3.5-0.13c5.85,0,8.77,2.33,8.77,6.98
			c0,1.53-0.47,2.91-1.41,4.13c-0.94,1.23-2.06,1.98-3.36,2.29l7.06,11.2H36.76z"/>
		<path style="clip-path:url(#SVGID_00000044148674214789957000000009654601025176237503_);fill:#FFFFFF;" d="M53.77,172.93v-11.18
			c0-1.33-0.33-2.37-0.98-3.14c-0.65-0.76-1.57-1.14-2.76-1.14c-0.77,0-1.53,0.22-2.3,0.67c-0.77,0.45-1.36,0.97-1.77,1.57v13.22
			H42.8v-25.09h3.16v9.26c0.43-0.65,1.1-1.2,2.04-1.64c0.94-0.44,1.91-0.66,2.9-0.66c1.88,0,3.36,0.62,4.43,1.86
			c1.07,1.24,1.6,2.94,1.6,5.09v11.18H53.77z"/>
		<path style="clip-path:url(#SVGID_00000044148674214789957000000009654601025176237503_);fill:#FFFFFF;" d="M91.85,163.99
			c0,4.47,1.58,6.7,4.74,6.7c1.47,0,2.63-0.6,3.46-1.8c0.84-1.2,1.25-2.83,1.25-4.9c0-4.41-1.57-6.61-4.71-6.61
			c-1.44,0-2.59,0.59-3.45,1.76C92.28,160.31,91.85,161.93,91.85,163.99 M88.53,163.99c0-2.75,0.74-4.96,2.22-6.65
			c1.48-1.69,3.42-2.54,5.84-2.54c2.55,0,4.52,0.81,5.93,2.43c1.41,1.63,2.11,3.88,2.11,6.76c0,2.87-0.72,5.13-2.16,6.79
			c-1.44,1.66-3.41,2.49-5.88,2.49c-2.54,0-4.51-0.84-5.94-2.51C89.24,169.08,88.53,166.82,88.53,163.99"/>
		<path style="clip-path:url(#SVGID_00000044148674214789957000000009654601025176237503_);fill:#ED1C24;" d="M121.38,156.58
			l-1.56,2.23c-0.32-0.32-0.89-0.63-1.7-0.91c-0.82-0.29-1.62-0.43-2.4-0.43c-1.71,0-3.08,0.6-4.08,1.8
			c-1.01,1.2-1.51,2.85-1.51,4.94c0,2.08,0.52,3.67,1.54,4.76c1.03,1.09,2.46,1.64,4.29,1.64c1.42,0,2.85-0.55,4.28-1.64l1.25,2.66
			c-1.7,1.09-3.79,1.65-6.3,1.65c-2.42,0-4.43-0.82-6.01-2.44c-1.58-1.63-2.37-3.83-2.37-6.61c0-2.83,0.82-5.11,2.47-6.83
			c1.65-1.71,3.9-2.57,6.75-2.57c0.92,0,1.92,0.2,2.99,0.58C120.08,155.77,120.87,156.17,121.38,156.58"/>
		<path style="clip-path:url(#SVGID_00000044148674214789957000000009654601025176237503_);fill:#ED1C24;" d="M132.13,157.46
			c-1.41,0-2.58,0.45-3.54,1.36c-0.91,0.86-1.43,1.94-1.55,3.22h9.85c0-1.28-0.4-2.34-1.2-3.19
			C134.82,157.92,133.63,157.46,132.13,157.46 M139.79,164.34h-12.82c0,2.08,0.57,3.68,1.71,4.8c1.01,0.97,2.3,1.46,3.89,1.46
			c1.8,0,3.31-0.52,4.52-1.58l1.33,2.28c-0.49,0.49-1.24,0.91-2.24,1.27c-1.27,0.46-2.67,0.69-4.22,0.69c-2.24,0-4.14-0.76-5.7-2.28
			c-1.74-1.67-2.61-3.92-2.61-6.74c0-2.94,0.89-5.29,2.68-7.06c1.59-1.58,3.48-2.37,5.67-2.37c2.54,0,4.52,0.71,5.96,2.14
			c1.39,1.37,2.09,3.2,2.09,5.47C140.04,163.11,139.95,163.75,139.79,164.34"/>
		<path style="clip-path:url(#SVGID_00000044148674214789957000000009654601025176237503_);fill:#ED1C24;" d="M153.03,158.17
			c-0.69-0.48-1.38-0.71-2.08-0.71c-1.12,0-2.1,0.51-2.93,1.54c-0.84,1.03-1.26,2.27-1.26,3.72v10.2h-3.16v-17.79h3.16v2.84
			c1.15-2.12,2.86-3.17,5.13-3.17c0.56,0,1.38,0.1,2.44,0.3L153.03,158.17z"/>
		<path style="clip-path:url(#SVGID_00000044148674214789957000000009654601025176237503_);fill:#ED1C24;" d="M158.74,163.99
			c0,4.47,1.58,6.7,4.74,6.7c1.47,0,2.63-0.6,3.46-1.8c0.84-1.2,1.25-2.83,1.25-4.9c0-4.41-1.57-6.61-4.71-6.61
			c-1.44,0-2.59,0.59-3.45,1.76C159.17,160.31,158.74,161.93,158.74,163.99 M155.42,163.99c0-2.75,0.74-4.96,2.22-6.65
			c1.48-1.69,3.42-2.54,5.84-2.54c2.55,0,4.52,0.81,5.93,2.43c1.41,1.63,2.11,3.88,2.11,6.76c0,2.87-0.72,5.13-2.16,6.79
			c-1.44,1.66-3.41,2.49-5.88,2.49c-2.54,0-4.51-0.84-5.94-2.51C156.13,169.08,155.42,166.82,155.42,163.99"/>
		<path style="clip-path:url(#SVGID_00000044148674214789957000000009654601025176237503_);fill:#ED1C24;" d="M173.68,171.87
			l1.11-2.99c1.76,1.15,3.18,1.73,4.26,1.73c1.95,0,2.92-0.82,2.92-2.46c0-1.17-0.94-2.18-2.82-3.02c-1.45-0.66-2.43-1.17-2.93-1.51
			c-0.51-0.35-0.94-0.74-1.31-1.17c-0.37-0.44-0.65-0.9-0.83-1.4c-0.19-0.49-0.27-1.02-0.27-1.59c0-1.46,0.53-2.6,1.59-3.42
			c1.06-0.82,2.46-1.23,4.17-1.23c1.29,0,2.93,0.41,4.9,1.23l-0.89,2.92c-1.26-1-2.51-1.49-3.78-1.49c-0.75,0-1.38,0.18-1.9,0.53
			c-0.51,0.36-0.77,0.81-0.77,1.35c0,1.14,0.65,2,1.94,2.59l2.26,1.03c1.39,0.63,2.39,1.35,3.02,2.16c0.64,0.81,0.95,1.82,0.95,3.04
			c0,1.59-0.56,2.84-1.68,3.75c-1.12,0.9-2.67,1.35-4.65,1.35C177.09,173.26,175.33,172.8,173.68,171.87"/>
		<path style="clip-path:url(#SVGID_00000044148674214789957000000009654601025176237503_);fill:#FFFFFF;" d="M64.65,152.31
			c0.54,0,1.01-0.19,1.39-0.57c0.38-0.38,0.57-0.85,0.57-1.39c0-0.53-0.19-0.99-0.57-1.37c-0.38-0.38-0.85-0.57-1.39-0.57
			s-1,0.19-1.38,0.56c-0.38,0.38-0.57,0.84-0.57,1.38s0.19,1.01,0.57,1.39C63.67,152.12,64.12,152.31,64.65,152.31"/>
	</g>
	<polygon class="st3" points="62.93,155.13 62.93,157.79 62.93,172.93 66.08,172.93 66.08,155.13 	"/>
	<g>
		<defs>
			<rect id="SVGID_00000115474283266405936700000001451212072171263886_" x="5" y="5" width="190" height="190"/>
		</defs>
		<clipPath id="SVGID_00000009566361286718351320000010090368203970214556_">
			<use xlink:href="#SVGID_00000115474283266405936700000001451212072171263886_"  style="overflow:visible;"/>
		</clipPath>
		<path style="clip-path:url(#SVGID_00000009566361286718351320000010090368203970214556_);fill:#FFFFFF;" d="M79.36,154.8
			c-2.36,0-4.06,0.87-5.1,2.62v-2.29h-1H71.1v17.8h3.16V159.7c0.42-0.63,1.03-1.16,1.81-1.59c0.79-0.43,1.54-0.65,2.26-0.65
			c1.34,0,2.3,0.38,2.87,1.14c0.57,0.76,0.85,2.09,0.85,3.98v10.35h3.16v-11.02C85.21,157.17,83.26,154.8,79.36,154.8"/>
	</g>
</g>
</svg>
