<?xml version="1.0" encoding="utf-8"?>
<!-- Generator: Adobe Illustrator 26.1.0, SVG Export Plug-In . SVG Version: 6.00 Build 0)  -->
<svg version="1.1" id="Layer_1" xmlns="http://www.w3.org/2000/svg" xmlns:xlink="http://www.w3.org/1999/xlink" x="0px" y="0px"
	 viewBox="0 0 200 200" style="enable-background:new 0 0 200 200;" xml:space="preserve">
<style type="text/css">
	.st0{clip-path:url(#SVGID_00000142889080921494892820000011196990690230634933_);}
</style>
<g>
	<g>
		<defs>
			<rect id="SVGID_1_" x="5" y="66.28" width="190" height="67.44"/>
		</defs>
		<clipPath id="SVGID_00000068671517033817337650000017543820569196905389_">
			<use xlink:href="#SVGID_1_"  style="overflow:visible;"/>
		</clipPath>
		<path style="clip-path:url(#SVGID_00000068671517033817337650000017543820569196905389_);" d="M69.77,78.15l-0.32-1
			c-0.13-0.32-0.34-1.26,0.92-1.26h1.67h2.75c0.71,0,0.86,0.65,0.99,0.98l7.38,21.23c0,0,0.57,1.88,1.03,1.88
			c0.5,0,1.08-1.88,1.08-1.88l7.23-21.23c0.14-0.33,0.28-0.98,1.26-0.98h4.15c1.16,0,1.11,0.65,0.99,0.98l-0.4,1.09L85.87,114.5
			c-0.24,1.18-3.31,1.13-3.5,0L69.77,78.15z"/>
		<path style="clip-path:url(#SVGID_00000068671517033817337650000017543820569196905389_);" d="M173.42,115.59l-13.04-38.75
			c-0.14-0.32-0.18-0.96,0.99-0.98h4.83c0.33,0,0.77,0.17,0.99,0.98c0,0,8.36,25.29,8.66,26.12c0.32,0.89,0.61,1.85,1.01,1.9
			c0.33,0.05,0.68-0.7,0.97-1.48c0.39-1.04,10.2-26.41,10.2-26.41c0.12-0.32,0.24-0.57,0.33-0.74c0.11-0.16,0.32-0.24,0.64-0.24
			h3.08h1.86c1.22,0,1.12,0.66,0.98,0.98l-17.55,45.19l-4.39,10.57c-0.13,0.33-0.26,0.56-0.39,0.69c-0.07,0.2-0.27,0.3-0.59,0.3
			h-4.43c-0.32,0-0.63-0.1-0.88-0.3c-0.2-0.13-0.23-0.36-0.1-0.69L173.42,115.59z"/>
		<path style="clip-path:url(#SVGID_00000068671517033817337650000017543820569196905389_);" d="M96.78,98.74
			c0-0.92,0.31-1.72,0.94-2.41c0.69-0.68,1.51-1.03,2.49-1.03c0.92,0,1.73,0.35,2.41,1.03c0.69,0.69,1.03,1.49,1.03,2.41
			c0,0.98-0.34,1.81-1.03,2.51c-0.69,0.63-1.49,0.94-2.41,0.94c-0.98,0-1.79-0.32-2.45-0.99C97.11,100.54,96.78,99.72,96.78,98.74"
			/>
		<path style="clip-path:url(#SVGID_00000068671517033817337650000017543820569196905389_);" d="M120.09,82.46
			c-0.81,0.33-1.51,0.86-2.16,1.38c-0.2,0.13-0.39,0.3-0.59,0.49l-0.49,0.49c-0.59,0.72-1.05,1.5-1.38,2.36
			c-0.46,1.04-0.7,2.19-0.7,3.44v23.61c0,0.66-0.32,0.99-0.98,0.99h-3.94c-0.65,0-0.98-0.33-0.98-0.99V90.63
			c0-0.92,0.07-1.84,0.2-2.75c0.19-1.06,0.54-2.04,0.99-2.95c0.78-1.84,1.83-3.42,3.14-4.72c1.31-1.32,2.86-2.37,4.63-3.15
			c0.99-0.4,1.97-0.69,2.95-0.89c0.59-0.14,1.18-0.23,1.77-0.3h1.08c7.95-0.18,11.69,4.79,12.74,5.72c0.46,0.46,0.53,1.28-0.24,1.63
			l-3.52,0.93c-0.96,0.38-1.64,0.24-2.32-0.44C130.01,83.43,125.52,80.22,120.09,82.46"/>
		<path style="clip-path:url(#SVGID_00000068671517033817337650000017543820569196905389_);" d="M158.09,84.87
			c-0.78-1.81-1.83-3.37-3.15-4.67c-1.31-1.32-6.08-5.2-15.92-3.63c-0.97,0.39-0.81,0.97,0.13,1.9c0.39,0.39,2.02,2.19,2.58,2.64
			c1.11,0.88,1.73,0.78,2.15,0.76c8.75-0.48,9.5,7.51,9.5,8.76v0.29c-0.13,0.46-0.47,0.7-0.98,0.7h-9.44
			c-1.58,0-3.09,0.31-4.54,0.93c-1.44,0.63-2.7,1.46-3.78,2.51c-1.09,1.05-1.94,2.29-2.56,3.74c-0.63,1.43-0.94,2.98-0.94,4.62
			c0,1.57,0.31,3.09,0.94,4.53c0.62,1.45,1.47,2.71,2.56,3.79c1.08,1.09,2.34,1.93,3.78,2.56c1.45,0.63,2.96,0.94,4.54,0.94h11.12
			h0.29h3.93c0.66,0,0.98-0.33,0.98-0.99V90.63C159.27,88.6,158.87,86.67,158.09,84.87 M153.37,109.32h-10.43
			c-1.65-0.06-5.91-1.02-5.91-5.9c0-1.71,0.71-3.4,1.72-4.28c1.99-1.72,4.19-1.63,4.19-1.63h9.44c0.52,0,0.85,0.27,0.98,0.79V109.32
			z"/>
		<path style="clip-path:url(#SVGID_00000068671517033817337650000017543820569196905389_);" d="M34.27,66.28
			C18.1,66.28,5,79.38,5,95.54c0,16.16,13.1,29.26,29.26,29.26c16.16,0,29.26-13.1,29.26-29.26C63.53,79.38,50.43,66.28,34.27,66.28
			 M22.22,72.66c1.97-2.23,5.33-3.97,9.83-4.4c0.73-0.06,1.47-0.11,2.21-0.11c7.37,0,14,3.07,18.75,7.98
			c-0.66-0.22-1.59-0.52-3.37-0.52c-14.43,0-19.33,28.51-23.66,28.41C23.12,104.12,13.32,82.68,22.22,72.66 M34.27,120.28
			c-14.4,0-26.06-11.67-26.06-26.06c0-8.41,4-15.87,10.19-20.64c-10.42,11.77,1.23,37.13,7.95,37.81
			c8.37,0.52,11.54-25.94,21.38-29.33c7.38-2.76,12.96,8.28,9.59,20.73C53.89,113.38,45.15,120.09,34.27,120.28 M34.88,75.3
			c4.12,0,7.48-1.03,7.51-2.3c0.03-1.27-3.29-2.3-7.41-2.3c-4.12-0.01-7.48,1.02-7.52,2.29C27.43,74.26,30.76,75.3,34.88,75.3"/>
	</g>
</g>
</svg>
